# xmcd
#
# Track frame offsets:
#	150
#	21850
#	54430
#	75835
#
# Disc length: 1107 seconds
#
# Revision: 2
# Processed by: cddbd v1.5.2PL0 Copyright (c) Steve Scherf et al.
# Submitted via: audiograbber 1.83.01
#
DISCID=1f045104
DTITLE=Vangelis - Conquest Of Paradise
DYEAR=1992
DGENRE=Pop
TTITLE0=Conquest Of Paradise (Theme from the Original Soundtrack "1492")
TTITLE1=Moxica And The Horse
TTITLE2=Line Open
TTITLE3=Landscape
EXTD=
EXTT0=
EXTT1=
EXTT2=
EXTT3=
PLAYORDER=
